<svg width="29" height="30" viewBox="0 0 29 30" fill="none" xmlns="http://www.w3.org/2000/svg">
<path d="M28.3226 14.9432C28.3226 18.1818 27.6928 20.9138 26.4334 23.1392C25.1739 25.3551 23.4741 27.036 21.3339 28.1818C19.1938 29.3182 16.8074 29.8864 14.1748 29.8864C11.5233 29.8864 9.12748 29.3134 6.98733 28.1676C4.85665 27.0123 3.16157 25.3267 1.9021 23.1108C0.6521 20.8854 0.0270996 18.1629 0.0270996 14.9432C0.0270996 11.7045 0.6521 8.97727 1.9021 6.76137C3.16157 4.53599 4.85665 2.85511 6.98733 1.71875C9.12748 0.572917 11.5233 0 14.1748 0C16.8074 0 19.1938 0.572917 21.3339 1.71875C23.4741 2.85511 25.1739 4.53599 26.4334 6.76137C27.6928 8.97727 28.3226 11.7045 28.3226 14.9432ZM13.0001 14.9432C13.0001 13.2008 19.9655 11.733 19.5015 10.5398C19.047 9.33712 18.3699 8.42803 17.4703 7.8125C16.5801 7.1875 15.4816 6.875 14.1748 6.875C12.868 6.875 11.7648 7.1875 10.8652 7.8125C9.97502 8.42803 9.29794 9.33712 8.83392 10.5398C8.37938 11.733 8.1521 13.2008 8.1521 14.9432C8.1521 16.6856 8.37938 18.1581 8.83392 19.3608C9.29794 20.554 9.97502 21.4631 10.8652 22.0881C11.7648 22.7036 12.868 23.0114 14.1748 23.0114C15.4816 23.0114 16.5801 22.7036 17.4703 22.0881C18.3699 21.4631 19.047 20.554 19.5015 19.3608C19.9655 18.1581 13.0001 16.6856 13.0001 14.9432Z" fill="#FEA548"/>
</svg>
