<svg width="117" height="30" viewBox="0 0 117 30" fill="none" xmlns="http://www.w3.org/2000/svg">
<path d="M116.322 14.9432C116.322 18.1818 115.693 20.9138 114.433 23.1392C113.174 25.3551 111.474 27.036 109.334 28.1818C107.194 29.3182 104.807 29.8864 102.175 29.8864C99.5232 29.8864 97.1274 29.3134 94.9872 28.1676C92.8565 27.0123 91.1614 25.3267 89.902 23.1108C88.652 20.8854 88.027 18.1629 88.027 14.9432C88.027 11.7045 88.652 8.97727 89.902 6.76137C91.1614 4.53599 92.8565 2.85511 94.9872 1.71875C97.1274 0.572917 99.5232 0 102.175 0C104.807 0 107.194 0.572917 109.334 1.71875C111.474 2.85511 113.174 4.53599 114.433 6.76137C115.693 8.97727 116.322 11.7045 116.322 14.9432ZM101 14.9432C101 13.2008 107.965 11.733 107.501 10.5398C107.047 9.33712 106.37 8.42803 105.47 7.8125C104.58 7.1875 103.482 6.875 102.175 6.875C100.868 6.875 99.7647 7.1875 98.8651 7.8125C97.9749 8.42803 97.2978 9.33712 96.8338 10.5398C96.3793 11.733 96.152 13.2008 96.152 14.9432C96.152 16.6856 96.3793 18.1581 96.8338 19.3608C97.2978 20.554 97.9749 21.4631 98.8651 22.0881C99.7647 22.7036 100.868 23.0114 102.175 23.0114C103.482 23.0114 104.58 22.7036 105.47 22.0881C106.37 21.4631 107.047 20.554 107.501 19.3608C107.965 18.1581 101 16.6856 101 14.9432Z" fill="#FEA548"/>
<path d="M69.9979 29.4884H58.8047V2.39746C58.8047 1.29289 59.7001 0.397461 60.8047 0.397461H69.8842C72.8767 0.397461 75.4619 0.979848 77.6399 2.14462C79.8274 3.29992 81.513 4.96659 82.6967 7.14462C83.8899 9.31318 84.4865 11.9126 84.4865 14.9429C84.4865 17.9732 83.8947 20.5774 82.7109 22.7554C81.5272 24.924 79.8511 26.5906 77.6825 27.7554C75.514 28.9107 72.9524 29.4884 69.9979 29.4884ZM66.7024 22.7838H69.7138C71.1532 22.7838 72.3795 22.5518 73.3928 22.0878C74.4155 21.6238 75.192 20.8236 75.7223 19.6872C76.2621 18.5509 76.532 16.9694 76.532 14.9429C76.532 12.9164 76.2573 11.335 75.7081 10.1986C75.1683 9.06223 74.3729 8.26204 73.3217 7.79803C72.2801 7.33401 71.0017 7.10201 69.4865 7.10201H66.7024V22.7838Z" fill="#FEA548"/>
<path d="M55.1506 14.9432C55.1506 18.1818 54.5208 20.9138 53.2614 23.1392C52.0019 25.3551 50.3021 27.036 48.1619 28.1818C46.0218 29.3182 43.6354 29.8864 41.0028 29.8864C38.3513 29.8864 35.9555 29.3134 33.8153 28.1676C31.6846 27.0123 29.9896 25.3267 28.7301 23.1108C27.4801 20.8854 26.8551 18.1629 26.8551 14.9432C26.8551 11.7045 27.4801 8.97727 28.7301 6.76137C29.9896 4.53599 31.6846 2.85511 33.8153 1.71875C35.9555 0.572917 38.3513 0 41.0028 0C43.6354 0 46.0218 0.572917 48.1619 1.71875C50.3021 2.85511 52.0019 4.53599 53.2614 6.76137C54.5208 8.97727 55.1506 11.7045 55.1506 14.9432ZM47.0256 14.9432C47.0256 13.2008 46.7935 11.733 46.3295 10.5398C45.875 9.33712 45.1979 8.42803 44.2983 7.8125C43.4081 7.1875 42.3096 6.875 41.0028 6.875C39.696 6.875 38.5928 7.1875 37.6932 7.8125C36.803 8.42803 36.1259 9.33712 35.6619 10.5398C35.2074 11.733 34.9801 13.2008 34.9801 14.9432C34.9801 16.6856 35.2074 18.1581 35.6619 19.3608C36.1259 20.554 36.803 21.4631 37.6932 22.0881C38.5928 22.7036 39.696 23.0114 41.0028 23.0114C42.3096 23.0114 43.4081 22.7036 44.2983 22.0881C45.1979 21.4631 45.875 20.554 46.3295 19.3608C46.7935 18.1581 47.0256 16.6856 47.0256 14.9432Z" fill="#FEA548"/>
<path d="M0.0795593 6.7611V2.39746C0.0795593 1.29289 0.97499 0.397461 2.07956 0.397461H23.3637C24.4682 0.397461 25.3637 1.29289 25.3637 2.39746V6.7611H16.6137V27.4884C16.6137 28.5929 15.7182 29.4884 14.6137 29.4884H8.82956V6.7611H0.0795593Z" fill="#FEA548"/>
</svg>
